<svg height="512" viewBox="0 0 60 60" width="512" xmlns="http://www.w3.org/2000/svg"><g id="013---Carrot" fill="none"><g id="Icons" transform="translate(0 1)"><path id="Shape" d="m57.39 19.38c-2.24 1.82-5.73 1.89-8.59 1.46-1.7157167-.2526013-3.4672799.0486676-5 .86l-6.39-6.39c.8784861-1.4789213 1.2702568-3.1964163 1.12-4.91-.26-3.12-.26-7.4 1.47-9.17.7859574-.78713796 1.8526533-1.22944684 2.965-1.22944684s2.1790426.44230888 2.965 1.22944684c1.0384963 1.11253697 1.7330682 2.50168078 2 4 2.14-1.94 4.84-3.08 6.89-1s1 4.75-1 6.93c1.4963498.272855 2.8839061.9666332 4 2 .7992264.8675266 1.2059898 2.0258589 1.1246387 3.2026117s-.6436385 2.2680928-1.5546387 3.0173883z" fill="#60a917"/><path id="Shape" d="m50 21c1.5864913-.0865522 3.1112788-.6435522 4.38-1.6.9345785-.7487515 1.5136576-1.8540545 1.5972231-3.0486601.0835654-1.1946056-.3359901-2.3697654-1.1572231-3.2413399-1.1160939-1.0333668-2.5036502-1.727145-4-2 2-2.18 3-4.87 1-6.93-.3085275-.31507189-.6708937-.5724535-1.07-.76 1.3815756-.62712934 3.0078451-.32345247 4.07.76 2.06 2.06 1 4.75-1 6.93 1.4963498.272855 2.8839061.9666332 4 2 2.72 2.69 1.18 8.7-7.82 7.89z" fill="#549414"/><path id="Shape" d="m46.79 33.41c-.12.1-.08.73-38.34 23.87-1.92978153 1.1693284-4.4086038.8696493-6.00412655-.7258734-1.59552275-1.5955228-1.89520186-4.0743451-.72587345-6.0041266 1.7-2.81-4.78 7.69 23.72-38.14.7885175-1.3033006 2.1281457-2.176067 3.6389233-2.3707548 1.5107776-.19468786 3.0279051.3099399 4.1210767 1.3707548l14.38 14.39c1.0246603 1.0615017 1.5282046 2.5213516 1.375864 3.9888348-.1523406 1.4674831-.9450122 2.7927719-2.165864 3.6211652z" fill="#e57e25"/><path id="Shape" d="m46.79 33.41c-.12.1-.08.73-38.34 23.87-1.92978153 1.1693284-4.4086038.8696493-6.00412655-.7258734-1.59552275-1.5955228-1.89520186-4.0743451-.72587345-6.0041266 10.33-17.07-8.88 14.28 23.72-38.14.7885175-1.3033006 2.1281457-2.176067 3.6389233-2.3707548 1.5107776-.19468786 3.0279051.3099399 4.1210767 1.3707548l14.38 14.39c1.0246603 1.0615017 1.5282046 2.5213516 1.375864 3.9888348-.1523406 1.4674831-.9450122 2.7927719-2.165864 3.6211652z" fill="#f57c00"/><path id="Shape" d="m44.79 31.41c-.12.1-.08.73-38.34 23.87-1.47095176.9279761-3.33144891.9778451-4.85.13-.84784511-1.5185511-.79797611-3.3790482.13-4.85 9.09-15-12.16 19.56 23.72-38.14.7885175-1.3033006 2.1281457-2.176067 3.6389233-2.3707548 1.5107776-.19468786 3.0279051.3099399 4.1210767 1.3707548l12.37 12.38c1.0246603 1.0615017 1.5282046 2.5213516 1.375864 3.9888348-.1523406 1.4674831-.9450122 2.7927719-2.165864 3.6211652z" fill="#ff9801"/></g><g id="Layer_2" fill="#000" transform="translate(-1 -1)"><path id="Shape" d="m34.9 12.71c-1.3090064-1.2740332-3.1270961-1.8823721-4.9392507-1.6526898-1.8121546.2296824-3.4209845 1.2723677-4.3707493 2.8326898l-23.73 38.11c-1.46371484 2.3317227-1.12024791 5.3658085.82766237 7.3113258 1.94791027 1.9455172 4.98241597 2.2852542 7.31233763.8186742l38.11-23.72c1.5638431-.9493512 2.6091206-2.5603095 2.8389113-4.3752666s-.3810148-3.6355911-1.6589113-4.9447334l-3-2.95c1.0670848-.3620655 2.2043312-.4682542 3.32-.31 2.83.42 6.75.46 9.37-1.67 1.1560112-.930186 1.8691628-2.3023651 1.9660964-3.782977.0969335-1.4806119-.4312286-2.9340581-1.4560964-4.007023-.856771-.8162767-1.8802579-1.4371921-3-1.82 2.7-3.82.73-6.34 0-7.07s-3.25-2.7-7.07 0c-1.86-5.13-6.64-5.47-9.16-3-1.63 1.64-2.23 5-1.77 10 .11083 1.1431465-.0573115 2.2961166-.49 3.36zm12.19 22-7.38-7.39c-.3921222-.3921222-1.0278778-.3921222-1.42 0s-.3921222 1.0278778 0 1.42l7.06 7.06-8.12 5-5.52-5.53c-.3921222-.3921221-1.0278778-.3921221-1.42 0-.3921221.3921222-.3921221 1.0278778 0 1.42l5.2 5.19-11.2 7-3.58-3.58c-.3921222-.3921221-1.0278778-.3921221-1.42 0-.3921221.3921222-.3921221 1.0278778 0 1.42l3.25 3.28-13.6 8.42c-1.53298156.9323648-3.50430148.698496-4.77657737-.5666722s-1.51718469-3.235147-.59342263-4.7733278l3.49-5.61 2.23 2.24c.39212218.3921221 1.0278778.3921221 1.42 0 .3921221-.3921222.3921221-1.0278778 0-1.42l-2.57-2.56 8.5-13.67 5.65 5.65c.2536586.2536586.623374.3527235.969878.259878.3465041-.0928454.6171546-.3634959.71-.71.0928455-.346504-.0062194-.7162194-.259878-.969878l-6-6 5.56-8.94 5 4.69c.4083084.3310902 1.0032538.2895246 1.3615573-.0951247.3583034-.3846494.357623-.9810446-.0015573-1.3648753l-5.31-5 2.92-4.7c.6276771-1.0427774 1.6959826-1.743045 2.9025879-1.9026283 1.2066052-.1595832 2.420227.2388811 3.2974121 1.0826283l14.44 14.45c.8349904.8725451 1.2310551 2.0756371 1.0776744 3.2735596s-.8397845 2.2624164-1.8676744 2.8964404zm-6.54-22.4c-.38-4.18.05-7.23 1.2-8.37 1.2456189-1.24487858 3.2643811-1.24487858 4.51 0 .9032224.96809433 1.507458 2.17656547 1.74 3.48.0689237.34313148.3122199.62526049.6414905.74387973.3292707.11861925.6965943.05646508.9685095-.16387973 1.29-1.17 3.71-2.87 5.53-1.06s.13 4.25-1 5.54c-.2404431.26472-.3212214.6376888-.2118543.9781714.1093672.3404825.3922302.5966453.7418543.6718286 1.3014179.229158 2.5113909.8220101 3.49 1.71.6230832.6726033.938255 1.5741098.8699662 2.4884207-.0682887.9143109-.5138816 1.7589968-1.2299662 2.3315793-2.17 1.76-5.83 1.53-7.83 1.24-1.7451843-.2382007-3.5220742.0290269-5.12.77l-1.87-1.88c2.88-1.93 6.79-2.07 9-1.94.5522847.0331371 1.0268629-.3877153 1.06-.94.033137-.5522847-.3877153-1.0268629-.94-1.06-1.9779763-.1185927-3.9628893.032799-5.9.45l4.05-4c.2536586-.2536586.3527235-.623374.259878-.969878-.0928454-.3465041-.3634959-.6171546-.71-.71-.346504-.0928455-.7162194.0062194-.969878.259878l-4 4.05c.4248124-1.9360237.5796145-3.9215294.46-5.9-.0303757-.55228475-.5027153-.97537566-1.055-.945s-.9753757.50271525-.945 1.055c.13 2.22 0 6.13-1.94 9l-1.73-1.73c.7919204-1.575888 1.1147093-3.3460207.93-5.1z"/><path id="Shape" d="m33.61 28.27c-.4083084-.3310902-1.0032538-.2895246-1.3615573.0951247-.3583034.3846494-.357623.9810446.0015573 1.3648753 1 .95 1.23 1.27 1.75 1.27.4098334-.0014102.7773196-.2527467.9272453-.6341753.1499256-.3814285.0519373-.8157262-.2472453-1.0958247z"/><path id="Shape" d="m16.71 41.29c-.3921222-.3921221-1.0278778-.3921221-1.42 0-.3921221.3921222-.3921221 1.0278778 0 1.42 1.06 1.06 1.19 1.29 1.71 1.29.4062651.0023626.77358-.2413038.929371-.6165185.1557909-.3752147.0690889-.807391-.219371-1.0934815z"/></g></g></svg>